<?xml version="1.0" encoding="UTF-8"?>
<!DOCTYPE svg PUBLIC "-//W3C//DTD SVG 1.1//EN" "http://www.w3.org/Graphics/SVG/1.1/DTD/svg11.dtd">
<svg xmlns="http://www.w3.org/2000/svg" xmlns:xlink="http://www.w3.org/1999/xlink">
<symbol id="arrow-diag" viewBox="0 0 10 9">
	<path stroke="#161735" stroke-linecap="round" stroke-linejoin="round" stroke-width="1.35" d="M8.615.675L1 8.291M8.615 6.116V.675M3.176.676l5.44-.001"/>
</symbol>
<symbol id="arrow-small" viewBox="0 0 8 5">
	<path d="M.148.855l3.47 3.458A.5.5 0 004 4.455a.498.498 0 00.38-.142L7.853.855a.5.5 0 000-.708.505.505 0 00-.711 0L4.5 2.774l-.5.49-.503-.49L.859.147a.504.504 0 00-.711 0 .5.5 0 000 .708z"/>
</symbol>
<symbol id="arrow" viewBox="0 0 11 8">
	<path d="M7.4 7.852l3.457-3.47A.5.5 0 0011 4a.498.498 0 00-.142-.38L7.4.147a.5.5 0 00-.709 0 .505.505 0 000 .711L9.32 3.497H.5a.502.502 0 000 1.006h8.817L6.692 7.141a.504.504 0 000 .711.5.5 0 00.709 0z"/>
</symbol>
<symbol id="ball-filled" viewBox="0 0 25 26">
	<path fill-rule="evenodd" d="M20.267 2.847A12.216 12.216 0 0012.43 0a12.221 12.221 0 00-7.835 2.847 14.681 14.681 0 013.754 9.837 14.69 14.69 0 01-3.754 9.84 12.227 12.227 0 007.835 2.847c2.97 0 5.697-1.069 7.837-2.846a14.692 14.692 0 01-3.754-9.841c0-3.789 1.424-7.242 3.753-9.837z" clip-rule="evenodd"/>
	<path fill-rule="evenodd" d="M21.614 4.146a12.781 12.781 0 00-3.248 8.538c0 3.287 1.233 6.285 3.248 8.541a12.78 12.78 0 003.247-8.54c0-3.287-1.23-6.284-3.247-8.54zM3.248 4.146A12.776 12.776 0 000 12.684c0 3.287 1.232 6.285 3.248 8.541a12.786 12.786 0 003.247-8.54c0-3.287-1.232-6.284-3.247-8.54z" clip-rule="evenodd"/>
</symbol>
<symbol id="ball-new" viewBox="0 0 32 32">
	<path stroke="#858587" stroke-width="2" d="M5.393 26.607a14.936 14.936 0 008.817 4.287l.207.023a14.971 14.971 0 0012.19-4.31c5.858-5.858 5.858-15.356 0-21.214-5.858-5.857-15.356-5.857-21.214 0-5.857 5.858-5.857 15.356 0 21.214z"/>
	<path stroke="#858587" stroke-width="2" d="M14.848 30.373a7.46 7.46 0 012.32-5.812l3.94-3.716c2.937-2.77 3.03-7.48.204-10.367a6.932 6.932 0 00-10.145.208L7.53 14.713a7.139 7.139 0 01-6.055 2.342"/>
</symbol>
<symbol id="ball-small" viewBox="0 0 46 46">
	<mask id="ball-small-a" width="46" height="46" x="0" y="0" maskUnits="userSpaceOnUse">
		<circle cx="22.627" cy="22.627" r="15" fill="#202C44" stroke="#858587" stroke-width="2" transform="rotate(45 22.627 22.627)"/>
	</mask>
	<g fill="transparent" stroke="#858587" stroke-width="2" mask="url(#ball-small-a)">
		<circle cx="22.627" cy="22.627" r="15" transform="rotate(45 22.627 22.627)"/>
		<path d="M25.983 43.803l-2.397-2.397a6 6 0 01.174-8.652l3.812-3.519a7.807 7.807 0 00.226-11.257v0a7.807 7.807 0 00-11.257.226l-3.518 3.813a6 6 0 01-8.653.174L1 18.82"/>
	</g>
</symbol>
<symbol id="ball" viewBox="0 0 25 25">
	<path fill="#858587" fill-rule="evenodd" d="M13.673 1.06c5.398.55 9.702 4.845 10.265 10.241.04.377.06.762.062 1.15v.049C24 18.842 18.84 24 12.5 24h-.048c-.377-.003-.754-.02-1.125-.06a11.359 11.359 0 01-5.376-1.987A11.513 11.513 0 011 12.546V12.5c0-1.156.172-2.294.51-3.39A11.441 11.441 0 0112.5 1h.048c.38.003.757.023 1.125.06zM2.581 9.458c-.301.98-.456 2.004-.456 3.042v.014c5.45-.428 9.83-4.827 10.367-10.364-4.586.003-8.564 2.938-9.911 7.308zm4.003 11.543a10.362 10.362 0 01-4.394-7.34c6.02-.462 10.859-5.333 11.427-11.45 4.813.517 8.65 4.33 9.19 9.125-6.02.465-10.858 5.333-11.424 11.454A10.255 10.255 0 016.584 21zm5.924 1.849c5.717-.006 10.367-4.646 10.367-10.35v-.017c-5.452.428-9.832 4.83-10.367 10.367z" clip-rule="evenodd"/>
	<path fill="#858587" d="M23.938 11.301l-.497.052.497-.052zM13.673 1.061l.05-.498-.05.497zM24 12.45h.5v-.004l-.5.004zM12.452 24l-.004.5h.004V24zm-1.125-.06l.054-.498h-.005l-.05.498zM5.95 21.953l.286-.41-.286.41zm-4.89-8.257l-.496.052.497-.052zM1 12.546H.5v.004l.5-.004zm.51-3.436l.477.148-.478-.148zM12.547 1l.004-.5h-.004V1zM2.58 9.458l-.478-.147.478.147zm-.456 3.056h-.5v.541l.54-.042-.04-.499zM12.492 2.15l.497.048.053-.548h-.55v.5zM2.19 13.661l-.038-.498-.518.04.06.515.496-.056zm4.394 7.34l.285-.41-.285.41zm7.033-18.79l.053-.498-.504-.054-.047.505.498.046zm9.19 9.125l.039.498.516-.04-.058-.514-.497.056zM11.383 22.79l-.052.497.504.053.046-.504-.498-.046zm1.125.06l-.497-.048-.053.549.55-.001v-.5zm10.367-10.367h.5v-.541l-.54.042.04.499zm1.56-1.234C23.848 5.617 19.358 1.136 13.724.563l-.101.995c5.162.525 9.28 4.634 9.818 9.795l.994-.104zm.065 1.198a12.42 12.42 0 00-.065-1.198l-.994.104c.037.359.056.728.059 1.102l1-.008zm0 .053v-.049h-1v.049h1zm-12 12c6.617 0 12-5.382 12-12h-1c0 6.066-4.935 11-11 11v1zm-.048 0h.048v-1h-.048v1zm-1.179-.063c.392.042.786.06 1.175.063l.008-1c-.365-.003-.724-.02-1.075-.058l-.108.995zm-5.607-2.074a11.859 11.859 0 005.611 2.074l.1-.995a10.86 10.86 0 01-5.14-1.9l-.571.821zM.565 13.748a12.013 12.013 0 005.101 8.616l.57-.822a11.013 11.013 0 01-4.677-7.898l-.994.104zM.5 12.55c.003.402.023.8.065 1.198l.994-.104a11.46 11.46 0 01-.059-1.102l-1 .008zm0-.05v.046h1V12.5h-1zm.531-3.537A11.989 11.989 0 00.5 12.5h1c0-1.106.164-2.195.487-3.242l-.956-.295zM12.5.5C7.2.5 2.59 3.903 1.031 8.963l.956.295A10.941 10.941 0 0112.5 1.5v-1zm.048 0H12.5v1h.048v-1zm1.175.063A12.58 12.58 0 0012.553.5l-.008 1c.365.003.726.022 1.079.058l.1-.995zM2.625 12.5c0-.988.148-1.962.434-2.895l-.956-.293a10.856 10.856 0 00-.478 3.188h1zm0 .014V12.5h-1v.014h1zm9.369-10.412c-.515 5.304-4.71 9.505-9.908 9.914l.078.997c5.7-.448 10.265-5.045 10.825-10.815l-.995-.096zM3.059 9.606c1.282-4.16 5.066-6.953 9.433-6.956v-1c-4.805.003-8.977 3.08-10.389 7.66l.956.296zm-1.366 4.112A10.862 10.862 0 006.3 21.412l.57-.822a9.862 9.862 0 01-4.182-6.985l-.994.113zM13.12 2.164C12.572 8.048 7.92 12.72 2.152 13.163l.076.997C8.5 13.678 13.525 8.609 14.115 2.257l-.996-.093zm10.185 9.116c-.566-5.03-4.588-9.024-9.634-9.567l-.107.995c4.582.492 8.234 4.122 8.747 8.684l.994-.112zM11.881 22.836c.544-5.887 5.196-10.555 10.965-11.002l-.077-.997c-6.271.485-11.297 5.551-11.884 11.907l.996.092zM6.3 21.412a10.756 10.756 0 005.032 1.875l.104-.995a9.756 9.756 0 01-4.566-1.701l-.57.82zM22.375 12.5c0 5.427-4.425 9.845-9.867 9.85v1c5.992-.006 10.867-4.869 10.867-10.85h-1zm0-.017v.017h1v-.017h-1zm-9.369 10.415c.512-5.304 4.706-9.508 9.908-9.917l-.078-.997c-5.702.448-10.268 5.048-10.825 10.818l.995.096z"/>
</symbol>
<symbol id="calendar" viewBox="0 0 22 22">
	<rect width="20" height="18" x="1" y="3" fill="transparent" stroke="#202C44" stroke-width="2" rx="2"/>
	<path stroke="#202C44" stroke-linecap="round" stroke-linejoin="round" stroke-width="2" d="M5 1v3M17 1v3M11 1v3M1 9h19"/>
</symbol>
<symbol id="close" viewBox="0 0 22 22">
	<path stroke="#161735" d="M.354.646l21 21M21.646.646l-21 21"/>
</symbol>
<symbol id="company-notamedia" viewBox="0 0 93 9">
	<path fill="#858587" fill-rule="evenodd" d="M17.387 4.834V4.81c0-1.163-.78-2.174-1.927-2.174-1.134 0-1.894.987-1.894 2.15v.024c0 1.162.781 2.175 1.915 2.175 1.146 0 1.906-.99 1.906-2.152zm-5.951 0v-.023c0-2.313 1.735-4.19 4.045-4.19 2.314 0 4.028 1.853 4.028 4.167v.023c0 2.313-1.735 4.189-4.05 4.189-2.312 0-4.023-1.854-4.023-4.166zM5.251.622v4.06L2.026.622H0v7.68h2.15V4.088l3.347 4.214H7.4V.622H5.25zM22.2 2.657h2.303V9h2.124V2.657h2.3V.622H22.2v2.035zm13.972 3.062L35.3 3.354l-.883 2.365h1.755zM34.274.622h2.089L39.69 9h-2.323l-.57-1.484h-3.015L33.222 9h-2.277L34.274.622zm11.005 0h-2.225V9h2.06V4.212l1.933 3.257h.045l1.943-3.28V9h2.091V.622h-2.223l-1.811 3.242L45.279.622zm10.556 0h6.055v1.974h-3.985v1.268h3.072v1.832h-3.072v1.328h3.983V9h-6.052V.622zm15.95 4.201c0 1.353-.858 2.119-2.147 2.119h-.88V2.68h.88c1.29 0 2.147.778 2.147 2.12v.023zM69.605.622h-3.006V9h2.96C72.365 9 74 7.205 74 4.787v-.024c0-2.419-1.613-4.141-4.395-4.141zM78.034 9h2.018V.622h-2.018V9zm9.737-5.645l.871 2.364H86.89l.882-2.364zM88.833.622h-2.087L83.416 9h2.278l.56-1.485h3.017L89.84 9h2.323L88.833.622z" clip-rule="evenodd"/>
</symbol>
<symbol id="diagram" viewBox="0 0 24 23">
	<rect width="7" height="1" x="12.5" y="5.5" fill="transparent" stroke="#1D75BD" stroke-linecap="round" rx=".5" transform="rotate(90 12.5 5.5)"/>
	<rect width="9" height="4" x="1" y="18" fill="transparent" stroke="#1D75BD" stroke-linecap="round" stroke-width="2" rx="1"/>
	<rect width="9" height="4" x="14" y="18" fill="transparent" stroke="#1D75BD" stroke-linecap="round" stroke-width="2" rx="1"/>
	<rect width="10" height="4" x="7" y="1" fill="transparent" stroke="#1D75BD" stroke-linecap="round" stroke-width="2" rx="1"/>
	<path fill="transparent" stroke="#1D75BD" stroke-linecap="round" stroke-linejoin="round" stroke-width="2" d="M19 18v-6H5v6"/>
</symbol>
<symbol id="download" viewBox="0 0 22 25">
	<rect width="20" height="23" x="1" y="1" fill="transparent" stroke="#1D75BD" stroke-width="2" rx="2"/>
	<path stroke="#1D75BD" stroke-linecap="round" stroke-linejoin="round" stroke-width="2" d="M11 6v9m0 0l4-3.64M11 15l-4-3.64M6 19h10"/>
</symbol>
<symbol id="file-doc" viewBox="0 0 39 51">
	<path fill="transparent" stroke="#1D75BD" d="M.5 2A1.5 1.5 0 012 .5h25.267L38.5 10.8V49a1.5 1.5 0 01-1.5 1.5H2A1.5 1.5 0 01.5 49V2z"/>
	<path fill="#1D75BD" fill-rule="evenodd" stroke="#fff" stroke-width=".2" d="M25.136 39H22.72L19.5 27l-3.22 12h-2.416L10 23h2.737l2.483 12.011L18.373 23h2.254l3.175 12.011L26.262 23H29l-3.864 16z" clip-rule="evenodd"/>
	<path fill="transparent" stroke="#1D75BD" d="M39 11h-8a4 4 0 01-4-4V0"/>
</symbol>
<symbol id="file-file" viewBox="0 0 39 51">
	<path fill="transparent" stroke="#1D75BD" d="M.5 2A1.5 1.5 0 012 .5h25.267L38.5 10.8V49a1.5 1.5 0 01-1.5 1.5H2A1.5 1.5 0 01.5 49V2z"/>
	<path fill="transparent" stroke="#1D75BD" d="M39 11h-8a4 4 0 01-4-4V0"/>
	<path stroke="#1D75BD" d="M8 21.5h23M8 27.5h23M8 33.5h23"/>
</symbol>
<symbol id="file-pdf" viewBox="0 0 39 51">
	<path fill="transparent" stroke="#ED1D25" d="M.5 2A1.5 1.5 0 012 .5h25.267L38.5 10.8V49a1.5 1.5 0 01-1.5 1.5H2A1.5 1.5 0 01.5 49V2z"/>
	<path fill="transparent" stroke="#ED1D25" d="M38 11h-8a4 4 0 01-4-4V0"/>
	<path fill="#ED1D25" fill-rule="evenodd" d="M31.458 33.6c-.3.36-.87.555-1.668.555-1.42 0-3.67-.424-5.537-1.37-3.237.335-5.624.777-7.51 1.39l-.02.009c-.094.035-.205.077-.32.123C14.097 38.243 12.394 40 10.886 40c-.284 0-.558-.065-.814-.193l-.89-.584-.043-.097a1.547 1.547 0 01-.099-1c.197-.98 1.213-2.531 3.491-3.928.353-.258.9-.562 1.651-.909a69.455 69.455 0 001.766-3.348c.95-1.901 1.54-3.791 2.017-5.423l-.008-.023-.002-.006c-.681-2.242-1.092-3.593-.404-6.05.202-.716.775-1.439 1.475-1.439l.437.004c.434 0 .826.155 1.126.452 1.223 1.223.663 4.205.041 6.668l-.065.261v.001c.731 2.092 1.78 3.775 2.96 4.743.474.374 1.012.74 1.6 1.085a22.213 22.213 0 012.407-.137c2.3 0 3.683.415 4.226 1.274.197.306.277.66.228 1.022a1.78 1.78 0 01-.528 1.228zm-12.01-7.072c-.43 1.386-1.047 2.855-1.884 4.467l-.115.221c-.324.62-.627 1.201-.8 1.7l.203-.077v.001a33.982 33.982 0 016.197-1.715 9.981 9.981 0 01-.775-.601c-1.097-.945-2.065-2.317-2.826-3.996zm7.723 5.103c2.59 0 3.35.462 3.556.66.066.076.108.146.136.193l.003.004c-.019.182-.078.21-.167.24l-.063.012a2.438 2.438 0 01-.362.026c-.844 0-2.159-.354-3.528-.95.167-.185.297-.185.425-.185zm-13.478 3.357c-.394.23-.698.43-.883.584-1.329 1.204-2.152 2.421-2.254 3.14.842-.29 1.935-1.507 3.137-3.724zm5.694-12.878l-.1.07c-.423-1.672-.434-3.034-.124-3.804.033-.08.082-.155.117-.208l.007-.01.275.092c.335.449.36 1.028.18 2.031l-.056.303-.023.127c-.07.389-.154.859-.276 1.4z" clip-rule="evenodd"/>
	<path fill="#fff" d="M31.458 33.6l-.071-.07-.006.007.077.064zm-7.205-.815l.045-.09-.026-.013-.03.003.01.1zm-7.51 1.39l-.03-.094-.004.001.035.094zm-.02.009l-.036-.094-.002.001.038.093zm0 0l.035.094.002-.001-.038-.093zm-.32.123l-.038-.092-.031.012-.018.03.087.05zm-6.331 5.5l-.056.084.01.006.046-.09zm-.89-.584l-.092.04.012.027.024.016.055-.083zm-.043-.097l.091-.04v-.001l-.091.041zm-.099-1l.098.02-.098-.02zm3.491-3.928l.053.086.006-.005-.059-.08zm1.651-.909l.042.091.03-.014.015-.027-.087-.05zm1.766-3.348l-.09-.044.09.044zm2.017-5.423l.096.028.008-.03-.01-.03-.095.032zm-.008-.023l-.096.03.001.002.095-.032zm-.002-.006l-.096.029.096-.03zm-.404-6.05l-.096-.027.096.027zM19.026 17v-.1.1zm.437.004v.1-.1zm1.126.452l.071-.07-.07.07zm.041 6.668l-.097-.024.097.024zm-.065.261l-.097-.024.097.024zm0 .001l-.097-.024-.007.029.01.028.094-.033zm2.96 4.743l-.063.077.002.001.062-.078zm1.6 1.085l-.05.086.028.017.033-.004-.011-.1zm6.633 1.137l-.084.053v.001l.084-.054zm.228 1.022l-.1-.013v.01l.1.003zm-14.422-1.378l.088.046-.088-.046zm1.884-4.467l.092-.04-.109-.24-.078.25.095.03zm-2 4.688l.09.046-.09-.046zm-.799 1.7l-.094-.032-.07.203.2-.077-.036-.094zm.203-.077h.1v-.146l-.136.052.036.094zm0 .001h-.1v.146l.136-.052-.036-.094zm6.197-1.715l.018.098.236-.042-.196-.138-.058.082zm-.775-.601l.065-.076-.065.076zm8.453 1.767l.075-.066-.006-.006-.07.072zm.136.193l-.085.05.085-.05zm.003.004l.1.01.003-.033-.017-.029-.086.052zm-.167.24l.02.098.012-.004-.032-.095zm-.063.012l.015.1.005-.002-.02-.098zm-3.89-.924l-.074-.066-.093.103.127.055.04-.091zM12.81 35.572l-.064-.077-.004.003.067.075zm.883-.584l.087.048.171-.315-.309.18.05.087zm-3.137 3.725l-.1-.014-.022.162.154-.054-.032-.094zm8.731-16.533l-.097.025.036.14.119-.083-.058-.082zm.1-.07l.058.082.031-.022.009-.038-.098-.022zm-.224-3.734l-.093-.038v.001l.093.037zm.117-.208l.084.055-.084-.055zm.007-.01l.032-.095-.073-.025-.043.065.084.054zm.275.092l.08-.06-.019-.025-.03-.01-.031.095zm.18 2.031l.098.018-.098-.018zm-.056.303l-.098-.019.098.018zm-.023.127l.099.018-.099-.018zM29.79 34.255c.808 0 1.415-.196 1.744-.59l-.153-.128c-.272.325-.804.518-1.591.518v.2zm-5.582-1.381c1.883.953 4.147 1.381 5.582 1.381v-.2c-1.406 0-3.639-.421-5.492-1.36l-.09.179zm-7.433 1.397c1.875-.61 4.254-1.051 7.488-1.387l-.02-.199c-3.24.336-5.636.779-7.53 1.396l.062.19zm-.017.006l.021-.008-.07-.187-.022.008.07.187zm.002 0l-.075-.186.075.186zm-.32.123c.114-.046.224-.087.318-.122l-.07-.188c-.095.036-.206.078-.323.125l.075.185zm-5.554 5.7c.794 0 1.622-.462 2.531-1.4.91-.94 1.918-2.372 3.072-4.342l-.173-.101c-1.151 1.966-2.148 3.38-3.043 4.303-.895.924-1.673 1.34-2.387 1.34v.2zm-.86-.203c.27.134.56.203.86.203v-.2c-.268 0-.527-.061-.77-.182l-.09.178zm-.9-.59l.89.584.11-.167-.89-.585-.11.167zm-.079-.14l.043.096.183-.08-.043-.097-.183.08zm-.105-1.06c-.078.377-.05.718.106 1.06l.181-.082a1.447 1.447 0 01-.09-.938l-.197-.04zm3.537-3.994c-2.29 1.404-3.333 2.975-3.537 3.994l.196.04c.19-.944 1.18-2.475 3.446-3.864l-.105-.17zm1.661-.915c-.753.348-1.307.656-1.668.92l.118.16c.345-.251.885-.552 1.634-.898l-.084-.182zm1.719-3.301a69.373 69.373 0 01-1.764 3.343l.174.099c.55-.97 1.145-2.096 1.769-3.353l-.18-.09zm2.01-5.407c-.477 1.63-1.065 3.514-2.01 5.407l.179.089c.954-1.91 1.546-3.807 2.023-5.44l-.192-.056zm-.007.037l.008.022.19-.063-.008-.022-.19.063zm-.003-.01l.002.008.192-.059-.002-.006-.192.058zm-.404-6.105c-.347 1.24-.418 2.204-.315 3.143.103.936.38 1.844.72 2.963l.19-.058c-.34-1.124-.61-2.012-.711-2.926-.1-.911-.033-1.85.308-3.068l-.192-.054zm1.57-1.512c-.385 0-.728.2-.996.482-.268.284-.47.658-.574 1.03l.192.055a2.33 2.33 0 01.527-.947c.244-.258.538-.42.852-.42v-.2zm.44.004l-.439-.004-.001.2.438.004.001-.2zm1.195.481a1.67 1.67 0 00-1.197-.481v.2c.41 0 .775.146 1.056.423l.14-.142zm.067 6.764c.311-1.233.609-2.602.674-3.819.065-1.21-.097-2.3-.741-2.944l-.141.141c.578.579.747 1.59.682 2.793-.064 1.196-.357 2.55-.668 3.78l.194.049zm-.065.26l.065-.26-.194-.049-.065.261.194.049zm0 .001l-.194-.049.194.05zm2.927 4.642c-1.162-.953-2.202-2.617-2.93-4.699l-.188.066c.734 2.102 1.79 3.803 2.991 4.787l.127-.154zm1.586 1.076a13.885 13.885 0 01-1.587-1.078l-.124.157c.477.378 1.019.746 1.61 1.093l.101-.172zm2.357-.151c-.756 0-1.569.044-2.418.137l.022.2a22.095 22.095 0 012.396-.137v-.2zm4.31 1.32c-.289-.457-.795-.786-1.51-1.001-.713-.215-1.645-.32-2.8-.32v.2c1.146 0 2.055.104 2.743.312.688.207 1.144.515 1.399.916l.169-.107zm.243 1.09a1.603 1.603 0 00-.243-1.09l-.168.108c.184.286.258.617.213.955l.198.026zm-.557 1.285c.353-.353.543-.8.558-1.296l-.2-.006a1.68 1.68 0 01-.5 1.16l.142.142zM17.653 31.04c.838-1.616 1.459-3.09 1.891-4.483l-.191-.06c-.428 1.38-1.043 2.843-1.878 4.45l.178.093zm-.116.221l.116-.221-.178-.092-.115.22.177.093zm-.793 1.687c.17-.49.468-1.064.793-1.687l-.177-.092c-.322.618-.63 1.206-.805 1.714l.189.065zm.072-.204l-.203.078.072.187.203-.078-.072-.187zm.136.095v-.002h-.2v.002h.2zm6.08-1.814c-1.622.288-3.855.81-6.216 1.721l.072.187a33.882 33.882 0 016.178-1.71l-.034-.198zm-.824-.427c.235.203.5.407.784.607l.115-.163a9.892 9.892 0 01-.768-.595l-.13.151zm-2.85-4.03c.764 1.689 1.74 3.075 2.85 4.03l.13-.151c-1.082-.932-2.042-2.292-2.798-3.96l-.183.082zm11.438 5.65c-.236-.227-1.031-.688-3.625-.688v.2c2.585 0 3.31.463 3.486.632l.14-.144zm.153.213c-.028-.047-.074-.124-.147-.207l-.15.132c.06.069.098.132.125.178l.172-.103zm.003.005l-.003-.005-.172.103.003.004.172-.102zm-.221.385a.321.321 0 00.154-.093.41.41 0 00.08-.23l-.199-.021c-.008.083-.024.111-.033.122-.009.01-.02.017-.066.032l.064.19zm-.075.016l.063-.013-.04-.196-.063.013.04.196zm-.382.028c.135 0 .26-.01.377-.027l-.03-.198a2.342 2.342 0 01-.347.025v.2zm-3.568-.958c1.373.597 2.704.958 3.568.958v-.2c-.823 0-2.123-.348-3.488-.941l-.08.183zm.465-.377c-.063 0-.143 0-.23.028a.634.634 0 00-.27.19l.15.134a.438.438 0 01.184-.134.501.501 0 01.166-.018v-.2zM12.873 35.65c.18-.15.478-.346.87-.575l-.101-.173c-.394.23-.704.434-.896.594l.127.154zm-2.218 3.077c.047-.336.268-.805.65-1.345.38-.538.912-1.138 1.572-1.735l-.135-.149c-.668.606-1.211 1.217-1.6 1.769-.388.548-.63 1.048-.685 1.432l.198.028zm2.95-3.786c-.6 1.104-1.17 1.956-1.692 2.566-.524.613-.994.974-1.39 1.111l.065.19c.446-.155.944-.548 1.477-1.17.535-.625 1.112-1.49 1.715-2.602l-.175-.095zm5.74-12.679l.1-.07-.115-.164-.1.07.115.164zm-.275-3.923c-.322.8-.304 2.187.12 3.866l.194-.049c-.421-1.667-.426-3.003-.128-3.742l-.186-.075zm.127-.226c-.035.052-.09.135-.127.225l.185.076c.03-.07.073-.137.109-.191l-.167-.11zm.006-.01a.63.63 0 00-.006.01l.167.11a.94.94 0 01.007-.01l-.168-.11zm.39.052l-.274-.092-.064.19.275.092.064-.19zm.247 2.144c.18-1.005.165-1.623-.198-2.109l-.16.12c.308.412.34.952.161 1.954l.197.035zm-.056.303l.056-.303-.197-.036-.055.302.196.037zm-.022.127l.022-.128-.197-.035-.022.127.197.036zm-.277 1.403c.122-.543.207-1.015.277-1.403l-.197-.036c-.07.389-.154.857-.275 1.395l.195.044z"/>
</symbol>
<symbol id="file-xls" viewBox="0 0 39 51">
	<path fill="transparent" stroke="#5B9732" d="M.5 2A1.5 1.5 0 012 .5h25.267L38.5 10.8V49a1.5 1.5 0 01-1.5 1.5H2A1.5 1.5 0 01.5 49V2z"/>
	<path fill="transparent" stroke="#5B9732" d="M39 11h-8a4 4 0 01-4-4V0"/>
	<path fill="#5B9732" fill-rule="evenodd" d="M26 38h-3.095L19.5 31.92 16.095 38H13l4.952-8L13 22h3.095l3.405 6.08L22.905 22H26l-4.952 8L26 38z" clip-rule="evenodd"/>
</symbol>
<symbol id="hamburger" viewBox="0 0 24 11">
	<path d="M0 0h24v1.5H0zM0 9h24v1.5H0z"/>
</symbol>
<symbol id="home" viewBox="0 0 60 66">
	<path fill-rule="evenodd" d="M59.153 22.403L30.882.457a2.178 2.178 0 00-2.698.022L.817 22.424A2.19 2.19 0 000 24.13v39.685C0 65.023.975 66 2.18 66h16.268c1.203 0 2.18-.978 2.18-2.185V39.517H39.37v24.298c0 1.208.977 2.185 2.18 2.185h16.27c1.203 0 2.18-.978 2.18-2.185V24.13a2.18 2.18 0 00-.847-1.727z" clip-rule="evenodd"/>
</symbol>
<symbol id="lightning" viewBox="0 0 20 34">
	<path fill="transparent" stroke="#ED1D25" stroke-linejoin="round" stroke-width="2" d="M17.615 1H6.365L1 17.667h6.923L4.245 33 19 14.333h-6.188L17.616 1z"/>
</symbol>
<symbol id="logo-balls" viewBox="0 0 62 26">
	<path fill="#1D75BD" fill-rule="evenodd" d="M38.719 2.847A12.216 12.216 0 0030.882 0a12.221 12.221 0 00-7.835 2.847 14.681 14.681 0 013.754 9.837 14.69 14.69 0 01-3.754 9.84 12.227 12.227 0 007.835 2.847c2.97 0 5.697-1.069 7.837-2.846a14.692 14.692 0 01-3.754-9.841c0-3.789 1.424-7.242 3.754-9.837z" clip-rule="evenodd"/>
	<path fill="#ED1D25" fill-rule="evenodd" d="M57.083 2.847A12.216 12.216 0 0049.246 0a12.215 12.215 0 00-7.834 2.847 14.68 14.68 0 013.755 9.837c0 3.789-1.425 7.246-3.755 9.84a12.22 12.22 0 007.834 2.847c2.97 0 5.698-1.069 7.837-2.846a14.692 14.692 0 01-3.754-9.841c0-3.789 1.425-7.242 3.754-9.837z" clip-rule="evenodd"/>
	<path fill="#ED1D25" fill-rule="evenodd" d="M40.064 4.146a12.781 12.781 0 00-3.248 8.538c0 3.287 1.233 6.285 3.248 8.541a12.78 12.78 0 003.248-8.54c0-3.287-1.231-6.284-3.248-8.54z" clip-rule="evenodd"/>
	<path fill="#D4D4D6" fill-rule="evenodd" d="M20.35 2.847A12.218 12.218 0 0012.515 0 12.214 12.214 0 004.68 2.847a14.688 14.688 0 013.754 9.837c0 3.789-1.426 7.246-3.754 9.84a12.219 12.219 0 007.835 2.847c2.968 0 5.694-1.069 7.835-2.846a14.692 14.692 0 01-3.754-9.841c0-3.789 1.425-7.242 3.754-9.837z" clip-rule="evenodd"/>
	<path fill="#1D75BD" fill-rule="evenodd" d="M21.699 4.146a12.777 12.777 0 00-3.248 8.538c0 3.287 1.232 6.285 3.248 8.541a12.786 12.786 0 003.247-8.54c0-3.287-1.232-6.284-3.247-8.54z" clip-rule="evenodd"/>
	<path fill="#D4D4D6" fill-rule="evenodd" d="M3.332 4.146a12.781 12.781 0 00-3.248 8.538c0 3.287 1.233 6.285 3.248 8.541a12.779 12.779 0 003.247-8.54c0-3.287-1.23-6.284-3.247-8.54z" clip-rule="evenodd"/>
	<path fill="#ED1D25" fill-rule="evenodd" d="M58.431 4.146a12.774 12.774 0 00-3.247 8.538c0 3.287 1.23 6.285 3.247 8.541a12.783 12.783 0 003.246-8.54c0-3.287-1.23-6.284-3.246-8.54z" clip-rule="evenodd"/>
</symbol>
<symbol id="main-logo-alt" viewBox="0 0 212 29">
	<path fill="#1D75BD" fill-rule="evenodd" d="M45.952 3.716A14.87 14.87 0 0036.715.53a14.877 14.877 0 00-9.237 3.185c2.747 2.902 4.426 6.766 4.426 11.004 0 4.239-1.679 8.105-4.425 11.008a14.883 14.883 0 009.236 3.184c3.5 0 6.715-1.195 9.237-3.184-2.745-2.903-4.424-6.77-4.424-11.008 0-4.238 1.679-8.102 4.424-11.004z" clip-rule="evenodd"/>
	<path fill="#ED1D25" fill-rule="evenodd" d="M67.603 3.716A14.87 14.87 0 0058.365.53a14.866 14.866 0 00-9.234 3.185c2.746 2.902 4.425 6.766 4.425 11.004 0 4.239-1.68 8.105-4.425 11.008a14.872 14.872 0 009.234 3.184c3.5 0 6.716-1.195 9.238-3.184-2.745-2.903-4.425-6.77-4.425-11.008 0-4.238 1.68-8.102 4.425-11.004z" clip-rule="evenodd"/>
	<path fill="#ED1D25" fill-rule="evenodd" d="M47.541 5.169c-2.375 2.522-3.828 5.875-3.828 9.552 0 3.677 1.453 7.03 3.828 9.554 2.378-2.524 3.829-5.877 3.829-9.554 0-3.677-1.451-7.03-3.829-9.552z" clip-rule="evenodd"/>
	<path fill="#D4D4D6" fill-rule="evenodd" d="M24.302 3.716A14.871 14.871 0 0015.066.53 14.867 14.867 0 005.83 3.716c2.745 2.902 4.425 6.766 4.425 11.004 0 4.239-1.68 8.105-4.425 11.008a14.873 14.873 0 009.236 3.184c3.499 0 6.713-1.195 9.236-3.184-2.745-2.903-4.424-6.77-4.424-11.008 0-4.238 1.679-8.102 4.424-11.004z" clip-rule="evenodd"/>
	<path fill="#1D75BD" fill-rule="evenodd" d="M25.89 5.169c-2.375 2.522-3.828 5.875-3.828 9.552 0 3.677 1.453 7.03 3.829 9.554 2.375-2.524 3.828-5.877 3.828-9.554 0-3.677-1.453-7.03-3.828-9.552z" clip-rule="evenodd"/>
	<path fill="#D4D4D6" fill-rule="evenodd" d="M4.24 5.169C1.865 7.69.412 11.044.412 14.72c0 3.677 1.453 7.03 3.828 9.554 2.378-2.524 3.829-5.877 3.829-9.554 0-3.677-1.451-7.03-3.829-9.552z" clip-rule="evenodd"/>
	<path fill="#ED1D25" fill-rule="evenodd" d="M69.192 5.169c-2.378 2.522-3.829 5.875-3.829 9.552 0 3.677 1.451 7.03 3.829 9.554 2.376-2.524 3.826-5.877 3.826-9.554 0-3.677-1.45-7.03-3.826-9.552z" clip-rule="evenodd"/>
	<path fill="#161735" fill-rule="evenodd" d="M92.087 5.501c-.395-.367-.926-.567-1.594-.6v4.011c.668-.033 1.2-.232 1.594-.6.394-.367.591-.836.591-1.405 0-.57-.197-1.038-.591-1.406zm-5.103 2.81c.394.369.924.568 1.587.601V4.901c-.668.033-1.198.233-1.59.6-.392.368-.588.836-.588 1.406s.197 1.038.59 1.405zm3.51 3.363H88.57v-1.126c-1.198-.033-2.18-.401-2.949-1.106-.768-.704-1.151-1.55-1.151-2.535 0-.986.385-1.83 1.154-2.533.77-.702 1.752-1.07 2.946-1.102v-.943h1.922v.943c1.198.033 2.182.4 2.952 1.102.77.703 1.155 1.547 1.155 2.533s-.385 1.83-1.155 2.535c-.77.705-1.754 1.073-2.952 1.106v1.126zM102.996 9.733v1.69H96.26V2.641h6.605v1.697h-4.677v1.757h3.65v1.69h-3.65v1.948h4.808zM107.326 6.995c-.098.52-.215.938-.351 1.256a6.984 6.984 0 01-.41.827 3.33 3.33 0 01-.345.502l-.156.153h3.782V4.338h-2.373v1.004a8.9 8.9 0 01-.147 1.653zm-3.184 2.738c.033-.033.083-.085.148-.156.064-.072.178-.235.34-.49.164-.255.306-.536.429-.842.123-.306.236-.72.339-1.243a8.653 8.653 0 00.153-1.66v-2.7h6.217v7.091h1.095v3.51h-1.928v-1.82h-5.384v1.82h-1.922v-3.51h.513zM121.067 9.733v1.69h-6.737V2.641h6.605v1.697h-4.677v1.757h3.65v1.69h-3.65v1.948h4.809zM124.78 4.337v2.505h1.79c.385 0 .704-.12.961-.361s.385-.537.385-.888-.128-.648-.385-.891-.576-.365-.961-.365h-1.79zm1.853-1.696c.922 0 1.687.282 2.294.848.607.565.911 1.266.911 2.1 0 .836-.302 1.536-.907 2.101-.606.566-1.372.849-2.298.849h-1.853v2.884h-1.928V2.641h3.781zM134.329 4.84l-1.096 2.884h2.185l-1.089-2.884zm-1.734 4.513l-.771 2.07h-2.053l3.531-8.782h2.047l3.531 8.782h-2.053l-.77-2.07h-3.462zM140.158 2.641h1.928v7.092h3.65V2.641h1.922v7.092h1.089v3.509h-1.921v-1.819h-6.668V2.641zM156.311 11.423V5.844l-4.42 5.58h-1.672V2.64h1.928v5.585l4.421-5.585h1.665v8.782h-1.922zM162.425 6.331c.232.218.523.328.874.328h1.984V4.338h-1.984c-.351 0-.642.112-.874.336a1.135 1.135 0 00-.348.852c0 .318.116.587.348.805zm4.781 5.093h-1.923V8.349h-1.665l-1.735 3.075h-2.047l1.923-3.326a2.17 2.17 0 01-.173-.08 2.654 2.654 0 01-.385-.281 3.452 3.452 0 01-.489-.49 2.63 2.63 0 01-.384-.73 2.854 2.854 0 01-.173-.991c0-.813.291-1.497.871-2.052.58-.555 1.315-.832 2.204-.832h3.976v8.782zM91.263 18.115v1.697h-2.56v7.085H86.78v-7.085h-2.567v-1.697h7.05zM99.408 25.207v1.69h-6.736v-8.782h6.605v1.697H94.6v1.758h3.65v1.69H94.6v1.947h4.808zM108.888 26.898h-1.922V23.32h-3.845v3.577h-1.928v-8.783h1.928v3.515h3.845v-3.515h1.922v8.783zM118.888 26.898h-1.922V23.32h-3.845v3.577h-1.928v-8.783h1.928v3.515h3.845v-3.515h1.922v8.783zM127.285 26.898v-5.58l-4.42 5.58h-1.672v-8.783h1.929V23.7l4.42-5.585h1.665v8.783h-1.922zM137.221 18.112c.426.121.776.267 1.049.438.273.172.516.344.726.514.211.173.362.317.454.435l.144.184-1.22 1.195-.104-.138a2.695 2.695 0 00-.294-.303 2.956 2.956 0 00-.498-.377 3.29 3.29 0 00-.708-.3 2.952 2.952 0 00-.894-.138c-.839 0-1.541.276-2.105.827-.563.55-.845 1.237-.845 2.057 0 .821.282 1.507.845 2.058.564.551 1.266.827 2.105.827.325 0 .636-.044.936-.131.298-.089.545-.193.741-.313.196-.12.369-.242.519-.364.151-.122.259-.23.326-.319l.1-.128 1.158 1.194a2.16 2.16 0 01-.153.193c-.069.08-.22.22-.456.422-.236.203-.489.38-.758.533a5.05 5.05 0 01-1.058.42c-.437.126-.888.19-1.355.19-1.37 0-2.525-.449-3.466-1.345-.941-.896-1.412-1.975-1.412-3.236 0-1.262.471-2.34 1.412-3.234.941-.894 2.096-1.341 3.466-1.341.471 0 .919.06 1.345.18zM144.721 20.314l-1.096 2.884h2.185l-1.089-2.884zm-1.734 4.514l-.77 2.07h-2.053l3.53-8.783h2.048l3.531 8.783h-2.053l-.77-2.07h-3.463zM156.385 19.812v2.505h1.79c.385 0 .704-.12.961-.362.257-.24.385-.537.385-.888 0-.35-.128-.648-.385-.89-.257-.244-.576-.365-.961-.365h-1.79zm1.853-1.696c.922 0 1.687.282 2.294.848.607.565.912 1.265.912 2.1 0 .835-.303 1.535-.908 2.101-.606.566-1.371.848-2.298.848h-1.853v2.885h-1.928v-8.782h3.781zM165.49 24.558c.559.556 1.241.833 2.044.833.804 0 1.486-.277 2.045-.833.559-.556.838-1.238.838-2.048 0-.811-.279-1.495-.838-2.052-.559-.558-1.241-.836-2.045-.836-.803 0-1.485.278-2.044.836-.559.557-.839 1.24-.839 2.052 0 .81.28 1.492.839 2.048zm-1.417-5.285c.94-.894 2.094-1.34 3.461-1.34 1.368 0 2.521.446 3.463 1.34.941.894 1.411 1.972 1.411 3.233 0 1.262-.47 2.34-1.411 3.237-.942.897-2.095 1.344-3.463 1.344-1.367 0-2.521-.447-3.461-1.344-.942-.896-1.413-1.975-1.413-3.236 0-1.262.471-2.34 1.413-3.234zM179.909 18.112c.426.121.775.267 1.048.438.274.172.517.344.727.514.211.173.362.317.454.435l.143.184-1.22 1.195-.104-.138a2.752 2.752 0 00-.293-.303 2.963 2.963 0 00-.499-.377 3.279 3.279 0 00-.707-.3 2.963 2.963 0 00-.895-.138c-.839 0-1.54.276-2.104.827-.563.55-.845 1.237-.845 2.057 0 .821.282 1.507.845 2.058.564.551 1.265.827 2.104.827.326 0 .637-.044.936-.131.299-.089.545-.193.742-.313.196-.12.37-.242.519-.364a1.9 1.9 0 00.325-.319l.101-.128 1.158 1.194a2.16 2.16 0 01-.153.193c-.069.08-.221.22-.457.422-.236.203-.488.38-.758.533a5.038 5.038 0 01-1.057.42c-.437.126-.889.19-1.356.19-1.37 0-2.525-.449-3.466-1.345-.94-.896-1.411-1.975-1.411-3.236 0-1.262.471-2.34 1.411-3.234.941-.894 2.096-1.341 3.466-1.341.472 0 .92.06 1.346.18zM189.332 18.112c.427.121.776.267 1.049.438.274.172.516.344.727.514.211.173.362.317.453.435l.144.184-1.22 1.195-.104-.138a2.695 2.695 0 00-.294-.303 2.916 2.916 0 00-.498-.377 3.268 3.268 0 00-.708-.3 2.952 2.952 0 00-.894-.138c-.839 0-1.54.276-2.104.827-.564.55-.845 1.237-.845 2.057 0 .821.281 1.507.845 2.058.564.551 1.265.827 2.104.827.326 0 .637-.044.936-.131.299-.089.545-.193.742-.313.195-.12.369-.242.519-.364a1.9 1.9 0 00.325-.319l.1-.128 1.159 1.194a2.364 2.364 0 01-.153.193c-.069.08-.221.22-.457.422-.236.203-.488.38-.758.533a5.027 5.027 0 01-1.058.42c-.436.126-.888.19-1.355.19-1.37 0-2.525-.449-3.466-1.345-.941-.896-1.412-1.975-1.412-3.236 0-1.262.471-2.34 1.412-3.234.941-.894 2.096-1.341 3.466-1.341.472 0 .92.06 1.345.18zM199.395 26.898v-5.58l-4.42 5.58h-1.672v-8.783h1.928V23.7l4.421-5.585h1.665v8.783h-1.922zM209.713 26.898v-5.58l-4.42 5.58h-1.672v-8.783h1.929V23.7l4.419-5.585h1.666v8.783h-1.922z" clip-rule="evenodd"/>
</symbol>
<symbol id="main-logo" viewBox="0 0 130 26">
	<path fill="#161735" fill-rule="evenodd" d="M85.159 24.213h-4.707v-2.712c-2.698-.11-4.924-1.007-6.67-2.695-1.784-1.724-2.678-3.798-2.678-6.213 0-2.416.896-4.488 2.685-6.206 1.751-1.683 3.975-2.579 6.663-2.688V1.43h4.707v2.27c2.697.11 4.926 1.005 6.678 2.688 1.787 1.718 2.684 3.79 2.684 6.206 0 2.415-.897 4.49-2.684 6.213-1.752 1.688-3.98 2.586-6.678 2.695v2.712zM77.102 9.337c-.862.85-1.291 1.932-1.291 3.256 0 1.323.43 2.404 1.297 3.255.836.82 1.948 1.282 3.344 1.385v-9.28c-1.405.102-2.52.564-3.35 1.384zm11.415 6.51c.866-.85 1.299-1.931 1.299-3.254s-.433-2.405-1.3-3.255c-.835-.82-1.952-1.283-3.358-1.386v9.281c1.406-.102 2.523-.565 3.359-1.385zM100.61 6.59h-5.852v-4.41h16.395v4.41h-5.837V23.61h-4.706V6.59zm18.371 17.021h-4.721V2.18h8.133c2.144 0 3.928.695 5.343 2.083 1.417 1.39 2.128 3.116 2.128 5.168 0 2.05-.708 3.777-2.12 5.167-1.411 1.389-3.197 2.084-5.351 2.084h-3.412v6.93zm3.27-11.34c.835 0 1.524-.272 2.078-.82.554-.547.828-1.215.828-2.013 0-.798-.274-1.468-.829-2.02-.554-.553-1.242-.828-2.077-.828h-3.27v5.682h3.27z" clip-rule="evenodd"/>
	<path fill="#1D75BD" fill-rule="evenodd" d="M38.719 3.028A12.216 12.216 0 0030.882.181a12.221 12.221 0 00-7.835 2.847 14.681 14.681 0 013.754 9.838 14.69 14.69 0 01-3.754 9.84 12.227 12.227 0 007.835 2.846c2.97 0 5.697-1.069 7.837-2.846a14.692 14.692 0 01-3.754-9.84c0-3.79 1.424-7.243 3.754-9.838z" clip-rule="evenodd"/>
	<path fill="#ED1D25" fill-rule="evenodd" d="M57.083 3.028A12.216 12.216 0 0049.246.181a12.215 12.215 0 00-7.834 2.847 14.68 14.68 0 013.755 9.838c0 3.788-1.425 7.245-3.755 9.84a12.22 12.22 0 007.834 2.846c2.97 0 5.698-1.069 7.837-2.846a14.692 14.692 0 01-3.754-9.84c0-3.79 1.425-7.243 3.754-9.838z" clip-rule="evenodd"/>
	<path fill="#ED1D25" fill-rule="evenodd" d="M40.064 4.327a12.781 12.781 0 00-3.248 8.539c0 3.287 1.233 6.284 3.248 8.54a12.78 12.78 0 003.248-8.54c0-3.286-1.231-6.284-3.248-8.539z" clip-rule="evenodd"/>
	<path fill="#D4D4D6" fill-rule="evenodd" d="M20.35 3.028A12.218 12.218 0 0012.515.181 12.214 12.214 0 004.68 3.028a14.688 14.688 0 013.754 9.838c0 3.788-1.426 7.245-3.754 9.84a12.219 12.219 0 007.835 2.846c2.968 0 5.694-1.069 7.835-2.846a14.692 14.692 0 01-3.754-9.84c0-3.79 1.425-7.243 3.754-9.838z" clip-rule="evenodd"/>
	<path fill="#1D75BD" fill-rule="evenodd" d="M21.699 4.327a12.777 12.777 0 00-3.248 8.539c0 3.287 1.232 6.284 3.248 8.54a12.786 12.786 0 003.247-8.54c0-3.286-1.232-6.284-3.247-8.539z" clip-rule="evenodd"/>
	<path fill="#D4D4D6" fill-rule="evenodd" d="M3.332 4.327a12.781 12.781 0 00-3.248 8.539c0 3.287 1.233 6.284 3.248 8.54a12.779 12.779 0 003.247-8.54c0-3.286-1.23-6.284-3.247-8.539z" clip-rule="evenodd"/>
	<path fill="#ED1D25" fill-rule="evenodd" d="M58.431 4.327a12.774 12.774 0 00-3.247 8.539c0 3.287 1.23 6.284 3.247 8.54a12.783 12.783 0 003.246-8.54c0-3.286-1.23-6.284-3.246-8.539z" clip-rule="evenodd"/>
</symbol>
<symbol id="pill" viewBox="0 0 26 26">
	<path fill="transparent" stroke="#1D75BD" stroke-width="2.2" d="M13 24c6.075 0 11-4.925 11-11S19.075 2 13 2 2 6.925 2 13s4.925 11 11 11z"/>
	<path fill="#ED1D25" fill-rule="evenodd" stroke="#1D75BD" stroke-width="2" d="M8.754 10.496a.264.264 0 01-.077-.178c0-.135.11-.245.246-.245h7.79a.246.246 0 010 .49h-7.79a.237.237 0 01-.17-.067zM8.754 15.496a.264.264 0 01-.077-.178c0-.136.11-.246.246-.246h7.79a.246.246 0 010 .491h-7.79a.237.237 0 01-.17-.067z" clip-rule="evenodd"/>
</symbol>
<symbol id="print" viewBox="0 0 24 26">
	<path fill="transparent" stroke="#1D75BD" stroke-width="2" d="M18 22h3a2 2 0 002-2v-8a2 2 0 00-2-2H3a2 2 0 00-2 2v8a2 2 0 002 2h3"/>
	<path fill="transparent" stroke="#1D75BD" stroke-width="2" d="M17 18h1v4a3 3 0 01-3 3H9a3 3 0 01-3-3v-4h11zM18 10h1V4a3 3 0 00-3-3H8a3 3 0 00-3 3v6h13z"/>
</symbol>
<symbol id="quote" viewBox="0 0 46 32">
	<path fill="currentColor" stroke="currentColor" stroke-width="1.4" d="M34.873 1C29.28 1 24.746 5.53 24.746 11.116c0 5.587 4.534 10.117 10.127 10.117 5.593 0 10.127-4.53 10.127-10.117C45 5.53 40.466 1 34.873 1zM11.127 1C5.534 1 1 5.53 1 11.116c0 5.587 4.534 10.117 10.127 10.117 5.593 0 10.127-4.53 10.127-10.117C21.254 5.53 16.72 1 11.127 1z"/>
	<path stroke="currentColor" stroke-linecap="round" stroke-linejoin="round" stroke-width="1.4" d="M42.904 17.396L29.434 30.85M19.16 17.396L5.69 30.85"/>
</symbol>
<symbol id="racket-2" viewBox="0 0 14 17">
	<path fill="transparent" stroke="#161735" stroke-linecap="round" stroke-width="2" d="M3.92 6.022c-.736 1.217-.995 2.502-.86 3.574.136 1.07.65 1.875 1.413 2.296.764.42 1.751.442 2.792.018 1.04-.424 2.078-1.28 2.814-2.497.737-1.217.996-2.501.86-3.573-.135-1.07-.649-1.876-1.412-2.296-.764-.42-1.751-.443-2.792-.019-1.04.424-2.078 1.28-2.814 2.497z"/>
	<path stroke="#161735" stroke-linecap="round" stroke-width="2" d="M3.981 12.226L1.208 15.94"/>
</symbol>
<symbol id="racket" viewBox="0 0 38 46">
	<path fill="transparent" stroke="#1D75BD" stroke-width="2" d="M15.116 11.325c-3.286 5.691-2.09 12.073 2.044 14.46 4.134 2.387 10.259.231 13.544-5.46 3.286-5.69 2.09-12.072-2.044-14.459-4.134-2.387-10.259-.231-13.544 5.46zM16.392 31.115l-3.464-2-4.5 7.794a2 2 0 103.464 2l4.5-7.794zM22.49 26.553c-2.167.48-4.535 1.855-5.598 3.696M13.83 21.553c.667 2.117.66 4.855-.402 6.696"/>
	<path stroke="#1D75BD" stroke-width="2" d="M15.258 35.079l-5.196-3"/>
	<circle r="4.218" fill="#fff" stroke="#1D75BD" stroke-width="2" transform="scale(-1 1) rotate(-45 5.204 23.508)"/>
</symbol>
<symbol id="rackets-2" viewBox="0 0 21 19">
	<path fill="transparent" stroke="#161735" stroke-linecap="round" stroke-width="2" d="M7.182 12.369c-1.03-.576-1.959-1.561-2.573-2.774-.615-1.214-.84-2.509-.68-3.613.161-1.097.679-1.88 1.36-2.295.681-.414 1.598-.506 2.617-.134"/>
	<path stroke="#161735" stroke-linecap="round" stroke-width="2" d="M12.623 16.106l.693 1.017"/>
	<path fill="#F5F5F8" stroke="#161735" stroke-linecap="round" stroke-width="2" d="M10.745 6.316c-.747 1.302-1.009 2.676-.872 3.822.137 1.145.657 1.997 1.418 2.44.76.442 1.753.469 2.807.016 1.054-.454 2.105-1.37 2.851-2.671.747-1.302 1.009-2.676.872-3.822-.137-1.145-.657-1.997-1.418-2.439-.76-.442-1.753-.47-2.807-.016-1.054.453-2.105 1.369-2.851 2.67z"/>
	<path stroke="#161735" stroke-linecap="round" stroke-width="2" d="M1-1h4.906" transform="matrix(-.49745 .86749 .86455 .50255 12.217 12.498)"/>
</symbol>
<symbol id="rackets" viewBox="0 0 45 46">
	<path fill="transparent" stroke="#1D75BD" stroke-width="2" d="M17.122 26.748c-1.502.03-3.086-.353-4.616-1.147-1.53-.793-2.948-1.967-4.125-3.428a14.525 14.525 0 01-2.598-4.938c-.53-1.78-.678-3.58-.447-5.242.231-1.662.833-3.128 1.73-4.287a7.103 7.103 0 013.42-2.432c1.354-.445 2.872-.498 4.433-.126 1.563.373 3.117 1.159 4.522 2.309"/>
	<mask id="rackets-a" width="10.562" height="11.294" x="22.058" y="31.255" fill="#000" maskUnits="userSpaceOnUse">
		<path fill="#fff" d="M22.058 31.255H32.62v11.294H22.058z"/>
		<path d="M25.5 36.5l1-2 1.771 2.966a.996.996 0 11-1.734.98L25.5 36.5z"/>
	</mask>
	<path fill="#1D75BD" d="M25.5 36.5l-1.789-.894-.462.924.486.911L25.5 36.5zm1-2l1.717-1.026a2 2 0 00-3.506.132l1.789.894zm.789 2.894l1-2-3.578-1.788-1 2 3.578 1.788zm-2.506-1.868l1.771 2.965 3.434-2.05-1.771-2.967-3.434 2.052zm3.52 1.978l-1.038-1.945-3.53 1.882 1.038 1.945 3.53-1.882zm-1.389-.397a1.004 1.004 0 011.388.397l-3.53 1.882a2.996 2.996 0 004.142 1.185l-2-3.464zm-.36 1.384a1.004 1.004 0 01.36-1.384l2 3.464a2.996 2.996 0 001.074-4.13l-3.434 2.05z" mask="url(#rackets-a)"/>
	<path fill="#fff" stroke="#1D75BD" stroke-width="2" d="M21.46 11.325c-3.286 5.691-2.091 12.073 2.043 14.46 4.135 2.387 10.259.231 13.544-5.46 3.286-5.69 2.09-12.072-2.044-14.459-4.134-2.387-10.258-.231-13.544 5.46zM22.735 31.115l-3.464-2-4.5 7.794a2 2 0 003.464 2l4.5-7.794z"/>
	<path stroke="#1D75BD" stroke-width="2" d="M28.833 26.553c-2.167.48-4.535 1.855-5.598 3.696M20.173 21.553c.668 2.117.661 4.855-.401 6.696M21.602 35.079l-5.197-3"/>
</symbol>
<symbol id="search" viewBox="0 0 12 12">
	<path fill-rule="evenodd" d="M8.603 8.144l2.891 2.847a.352.352 0 010 .504.365.365 0 01-.512 0L8.079 8.638a4.733 4.733 0 01-2.966 1.036C2.51 9.674.4 7.598.4 5.04.4 2.476 2.51.4 5.113.4c2.602 0 4.712 2.076 4.712 4.639a4.569 4.569 0 01-1.222 3.105zM1.125 5.04c0 2.167 1.785 3.921 3.988 3.921C7.315 8.96 9.1 7.206 9.1 5.04S7.315 1.114 5.113 1.114c-2.203 0-3.988 1.758-3.988 3.925z" clip-rule="evenodd"/>
	<path d="M11.494 10.99l.281-.284-.281.285zM8.603 8.145l-.295-.27-.262.284.276.271.28-.285zm2.891 3.351l-.277-.288-.004.004.281.284zm-.512 0l.28-.285-.28.285zM8.079 8.638l.28-.285-.253-.25-.277.223.25.312zm3.696 2.068L8.883 7.859l-.561.57 2.891 2.847.562-.57zm-.004 1.077a.752.752 0 00.004-1.077l-.562.57a.048.048 0 01.004-.07l.554.577zm-1.07-.003a.765.765 0 001.074 0l-.562-.57a.037.037 0 01.025-.01c.008 0 .017.003.025.01l-.563.57zM7.797 8.923l2.903 2.857.561-.57-2.903-2.857-.561.57zm-2.685 1.151A5.133 5.133 0 008.328 8.95l-.5-.624a4.333 4.333 0 01-2.715.948v.8zM0 5.04c0 2.786 2.295 5.035 5.113 5.035v-.8C2.725 9.274.8 7.371.8 5.04H0zM5.113 0C2.295 0 0 2.25 0 5.039h.8C.8 2.703 2.725.8 5.113.8V0zm5.112 5.039C10.225 2.249 7.93 0 5.113 0v.8C7.5.8 9.425 2.703 9.425 5.039h.8zM8.897 8.415a4.969 4.969 0 001.328-3.376h-.8c0 1.09-.424 2.081-1.117 2.835l.589.541zm-3.784.145c-1.988 0-3.588-1.581-3.588-3.521h-.8c0 2.394 1.971 4.321 4.388 4.321v-.8zM8.7 5.04c0 1.94-1.6 3.521-3.587 3.521v.8C7.529 9.36 9.5 7.433 9.5 5.04h-.8zM5.113 1.514C7.1 1.514 8.7 3.1 8.7 5.04h.8C9.5 2.645 7.53.714 5.113.714v.8zM1.525 5.04c0-1.94 1.6-3.525 3.588-3.525v-.8C2.696.714.725 2.645.725 5.04h.8z"/>
</symbol>
<symbol id="social-fb-2" viewBox="0 0 8 15">
	<path d="M7.98 0v2.921H6.515c-.505 0-.732.59-.732 1.094v1.824H7.98v2.919H5.783v5.837l-2.93-.001.001-5.836H.657V5.839h2.197V2.92A2.924 2.924 0 015.784.001L7.978 0z"/>
</symbol>
<symbol id="social-fb" viewBox="0 0 30 29">
	<path d="M15.263 0c7.964 0 14.42 6.492 14.42 14.5S23.228 29 15.264 29C7.298 29 .842 22.508.842 14.5S7.298 0 15.262 0zm3.717 7.25l-2.197.001a2.924 2.924 0 00-2.929 2.92v2.918h-2.196v2.919h2.196v5.836l2.93.001v-5.837h2.196v-2.919h-2.197v-1.824c0-.505.227-1.095.733-1.095h1.464V7.25z"/>
</symbol>
<symbol id="social-insta-2" viewBox="0 0 10 11">
	<path fill-rule="evenodd" d="M4.336.751h1.047a25.1 25.1 0 011.403.028C7.283.8 7.623.88 7.92.996c.307.12.567.279.827.539s.42.52.539.827c.116.297.194.637.217 1.134.02.445.027.62.028 1.551v.567c0 1.095-.006 1.263-.028 1.735-.023.497-.101.836-.217 1.134a2.29 2.29 0 01-.539.827c-.26.26-.52.42-.827.539-.298.115-.637.194-1.134.217-.446.02-.62.027-1.561.028h-.731a27.339 27.339 0 01-1.56-.028c-.498-.023-.838-.102-1.135-.217a2.29 2.29 0 01-.827-.539 2.29 2.29 0 01-.54-.827C.318 8.185.239 7.846.217 7.349a25.1 25.1 0 01-.028-1.403V4.9a25.1 25.1 0 01.028-1.403C.238 3 .317 2.66.433 2.362c.12-.307.279-.568.539-.827.26-.26.52-.42.827-.54C2.096.88 2.436.802 2.933.78 3.321.76 3.503.754 4.161.75h.175zm3.038 1.612c.31 0 .56.256.56.566a.56.56 0 01-.553.568.573.573 0 01-.568-.568c0-.31.251-.566.56-.566zm-2.492.65a2.4 2.4 0 110 4.798 2.4 2.4 0 010-4.798zm-.022.852a1.557 1.557 0 100 3.115 1.557 1.557 0 000-3.115z" clip-rule="evenodd"/>
</symbol>
<symbol id="social-insta" viewBox="0 0 30 29">
	<path d="M14.946 0c7.965 0 14.421 6.492 14.421 14.5S22.912 29 14.947 29C6.981 29 .524 22.508.524 14.5S6.982 0 14.946 0zm1.108 8.157H14.52c-.825.003-1.054.012-1.54.035-.623.028-1.049.128-1.421.274-.386.15-.712.351-1.038.679a2.889 2.889 0 00-.676 1.043c-.145.375-.244.803-.272 1.43-.024.53-.033.755-.035 1.768v1.321c.002 1.014.01 1.24.035 1.769.028.627.127 1.055.272 1.43.15.387.35.715.676 1.043.326.327.652.529 1.037.68.373.145.8.244 1.423.273.559.026.777.034 1.957.035h.916c1.18-.001 1.398-.01 1.958-.035.623-.029 1.049-.128 1.422-.274.385-.15.712-.352 1.037-.68a2.89 2.89 0 00.676-1.043c.145-.374.244-.802.272-1.43.027-.595.035-.806.036-2.187v-.714c-.002-1.175-.01-1.396-.036-1.956-.028-.627-.127-1.055-.272-1.43a2.889 2.889 0 00-.676-1.043 2.871 2.871 0 00-1.037-.68c-.373-.145-.799-.245-1.422-.273-.527-.024-.751-.033-1.76-.035zm-.657 2.865a3.017 3.017 0 013.008 3.025 3.017 3.017 0 01-3.008 3.025 3.017 3.017 0 01-3.008-3.025 3.017 3.017 0 013.008-3.025zm0 1.061c-1.078 0-1.953.88-1.953 1.964s.875 1.963 1.953 1.963c1.079 0 1.953-.879 1.953-1.963a1.958 1.958 0 00-1.953-1.964zm3.127-1.887c.389 0 .703.316.703.707 0 .39-.314.706-.703.706a.705.705 0 01-.703-.707c0-.39.315-.706.703-.706z"/>
</symbol>
<symbol id="social-tw-2" viewBox="0 0 14 11">
	<path d="M13.631 1.287a5.59 5.59 0 01-1.593.433A2.76 2.76 0 0013.258.2a5.588 5.588 0 01-1.762.667A2.783 2.783 0 009.472 0C7.94 0 6.698 1.23 6.698 2.745c0 .215.024.425.072.626A7.902 7.902 0 011.053.502a2.711 2.711 0 00-.376 1.38c0 .953.49 1.794 1.234 2.286a2.785 2.785 0 01-1.256-.344v.035c0 1.33.955 2.44 2.224 2.692a2.804 2.804 0 01-1.252.047 2.773 2.773 0 002.59 1.907A5.601 5.601 0 01.112 9.64a7.91 7.91 0 004.252 1.234c5.102 0 7.892-4.183 7.892-7.811 0-.12-.003-.238-.008-.356a5.605 5.605 0 001.384-1.42z"/>
</symbol>
<symbol id="social-tw" viewBox="0 0 29 29">
	<path d="M14.421 0c7.965 0 14.421 6.492 14.421 14.5S22.386 29 14.422 29C6.456 29 0 22.508 0 14.5S6.457 0 14.421 0zm3.051 9.063c-1.532 0-2.774 1.229-2.774 2.745 0 .215.025.425.072.626a7.902 7.902 0 01-5.717-2.869 2.711 2.711 0 00-.375 1.38c0 .953.49 1.793 1.233 2.285a2.787 2.787 0 01-1.256-.343v.034c0 1.33.956 2.44 2.225 2.693a2.807 2.807 0 01-1.253.047 2.773 2.773 0 002.591 1.906 5.601 5.601 0 01-4.106 1.137 7.91 7.91 0 004.252 1.233c5.102 0 7.892-4.183 7.892-7.81 0-.12-.003-.238-.009-.356a5.603 5.603 0 001.385-1.421 5.586 5.586 0 01-1.593.432 2.759 2.759 0 001.22-1.519 5.588 5.588 0 01-1.762.666 2.783 2.783 0 00-2.025-.867z"/>
</symbol>
<symbol id="social-vk-2" viewBox="0 0 17 10">
	<path d="M14.654 6.256c1.229 1.182 1.485 1.752 1.522 1.827.51.871-.558.942-.558.942l-2.049.03s-.441.087-1.017-.323c-.766-.544-1.49-1.961-2.052-1.774-.569.188-.551 1.46-.551 1.46s.004.184-.126.328c-.143.156-.417.095-.417.095H8.49s-2.023.218-3.802-1.704C2.75 5.045 1.034.93 1.034.93S.937.68 1.042.547c.122-.149.45-.144.45-.144l2.191-.01s.206.04.353.15c.122.095.19.27.19.27s.353.928.823 1.765C5.962 4.217 6.386 4.574 6.697 4.4c.455-.257.32-2.315.32-2.315s.009-.75-.23-1.08C6.606.747 6.26.667 6.11.651c-.127-.018.075-.315.34-.45.395-.2 1.09-.209 1.913-.2.64.004.824.048 1.072.108.758.188.5.92.5 2.668 0 .563-.096 1.352.291 1.613.168.109.58.018 1.607-1.791.483-.855.849-1.861.849-1.861s.08-.179.202-.258c.126-.078.298-.053.298-.053l2.305-.016s.694-.083.808.24c.117.339-.262 1.132-1.204 2.431-1.547 2.14-1.719 1.94-.437 3.173z"/>
</symbol>
<symbol id="social-vk" viewBox="0 0 30 29">
	<path d="M15.105 0c7.964 0 14.42 6.492 14.42 14.5S23.07 29 15.106 29C7.14 29 .684 22.508.684 14.5S7.14 0 15.104 0zm-.742 9.971c-.824-.009-1.518 0-1.913.2-.265.135-.468.431-.34.45.15.016.496.095.677.352.238.331.23 1.081.23 1.081s.134 2.058-.32 2.314c-.311.174-.735-.183-1.648-1.822-.47-.837-.824-1.765-.824-1.765s-.067-.174-.19-.27c-.147-.11-.352-.148-.352-.148l-2.191.009s-.328-.005-.45.143c-.105.135-.009.384-.009.384s1.716 4.114 3.654 6.206c1.78 1.923 3.803 1.704 3.803 1.704h.916s.273.062.416-.095c.13-.143.126-.326.126-.326v-.015c0-.14.018-1.27.551-1.446.564-.188 1.287 1.23 2.052 1.774.576.41 1.018.322 1.018.322l2.048-.03s1.068-.07.559-.941c-.038-.075-.294-.645-1.522-1.827-1.282-1.233-1.11-1.033.437-3.173.942-1.3 1.32-2.092 1.203-2.432-.114-.322-.807-.24-.807-.24l-2.305.017s-.172-.025-.298.053c-.123.079-.202.257-.202.257s-.366 1.007-.85 1.862c-1.026 1.808-1.438 1.9-1.606 1.79-.388-.26-.29-1.05-.29-1.612 0-1.748.257-2.48-.501-2.668-.248-.06-.433-.105-1.072-.108z"/>
</symbol>
<symbol id="social-tg" viewBox="0 0 29 29">
	<path d="M14 0C21.7318 0 28 6.26818 28 14C28 21.7318 21.7318 28 14 28C6.26818 28 0 21.7318 0 14C0 6.26818 6.26818 0 14 0ZM18.8294 19.7069C19.0865 18.9172 20.2936 11.0428 20.4419 9.49073C20.4871 9.02109 20.3382 8.70864 20.048 8.56864C19.6961 8.4 19.1755 8.484 18.5704 8.70227C17.7412 9.00136 7.14254 13.5011 6.53036 13.762C5.95 14.0089 5.40082 14.2775 5.40082 14.6675C5.40082 14.9418 5.56373 15.0958 6.01173 15.2555C6.47755 15.4216 7.65164 15.7774 8.34591 15.9689C9.01409 16.1535 9.77327 15.9931 10.1996 15.7284C10.6508 15.4477 15.8639 11.9605 16.2375 11.6544C16.611 11.3489 16.9095 11.7403 16.604 12.0464C16.2985 12.3518 12.7209 15.8245 12.2487 16.3055C11.6754 16.8891 12.082 17.4943 12.467 17.7367C12.9055 18.0135 16.0618 20.1301 16.5372 20.4699C17.0125 20.8097 17.4943 20.9637 17.9359 20.9637C18.3775 20.9631 18.6098 20.3815 18.8294 19.7069Z"/>
</symbol>
<symbol id="social-tg-2" viewBox="0 0 12 10">
	<path fill-rule="evenodd" clip-rule="evenodd" d="M9.19199 9.88959C9.35299 10.0036 9.56048 10.0321 9.74548 9.96209C9.93047 9.89159 10.0665 9.73359 10.1075 9.54209C10.542 7.50008 11.5959 2.33158 11.9914 0.474075C12.0214 0.334074 11.9714 0.188574 11.8614 0.0950743C11.7514 0.00157414 11.5989 -0.0254259 11.4629 0.0250741C9.36649 0.801075 2.91013 3.22358 0.271193 4.20008C0.103697 4.26208 -0.00530095 4.42308 0.000198922 4.59958C0.00619879 4.77658 0.125196 4.93008 0.296692 4.98158C1.48017 5.33558 3.03363 5.82808 3.03363 5.82808C3.03363 5.82808 3.75961 8.02058 4.1381 9.13558C4.1856 9.27558 4.2951 9.38559 4.4396 9.42359C4.58359 9.46109 4.73759 9.42159 4.84509 9.32009C5.45307 8.74608 6.39305 7.85858 6.39305 7.85858C6.39305 7.85858 8.17901 9.16808 9.19199 9.88959ZM3.68712 5.55108L4.5266 8.32008L4.71309 6.56658C4.71309 6.56658 7.95652 3.64108 9.80548 1.97358C9.85948 1.92458 9.86697 1.84258 9.82198 1.78508C9.77748 1.72758 9.69548 1.71408 9.63398 1.75308C7.49103 3.12158 3.68712 5.55108 3.68712 5.55108Z"/>
</symbol>
<symbol id="ticket" viewBox="0 0 12 11">
	<path d="M9.356 3.387c.385 0 .586-.083.838-.335l1.007 1.006L4.659 10.6 3.652 9.594c.253-.253.336-.454.336-.84 0-.77-.572-1.341-1.342-1.341-.385 0-.586.083-.839.335L.801 6.742 7.343.2l1.006 1.006c-.252.253-.335.454-.335.84 0 .769.572 1.341 1.342 1.341zM5.143 2.6l-.342.339 3.657 3.66.343-.338L5.143 2.6z" clip-rule="evenodd"/>
</symbol>
<symbol id="user" viewBox="0 0 23 23">
	<path fill="transparent" stroke="#1D75BD" stroke-linecap="round" stroke-width="2" d="M15 8.4c0 1.962-1.595 3.6-3.5 3.6S8 10.362 8 8.4C8 6.496 9.537 5 11.5 5S15 6.496 15 8.4z"/>
	<path fill="transparent" stroke="#1D75BD" stroke-linecap="round" stroke-linejoin="round" stroke-width="2" d="M19 18l-.279-1.167c-.296-1.24-1.17-2.266-2.406-2.584-.319-.083-.675-.167-1.065-.249 0 0-.938 1.738-3.75 1.738C8.687 15.738 7.75 14 7.75 14c-.39.082-.746.166-1.065.248-1.236.319-2.11 1.344-2.406 2.585L4 18"/>
	<circle cx="11.5" cy="11.5" r="10.5" fill="transparent" stroke="#1D75BD" stroke-linecap="round" stroke-width="2"/>
</symbol>
<symbol id="volumes" viewBox="0 0 20 23">
	<rect width="10.5" height="1" x="1.5" y="12" stroke="#1D75BD" stroke-linecap="round" rx=".5" transform="rotate(90 1.5 12)"/>
	<rect width="16.773" height="1" x="7.5" y="5.727" stroke="#1D75BD" stroke-linecap="round" rx=".5" transform="rotate(90 7.5 5.727)"/>
	<rect width="22" height="1" x="13.5" y=".5" stroke="#1D75BD" stroke-linecap="round" rx=".5" transform="rotate(90 13.5 .5)"/>
	<rect width="11.546" height="1" x="19.5" y="10.955" stroke="#1D75BD" stroke-linecap="round" rx=".5" transform="rotate(90 19.5 10.955)"/>
</symbol>
<symbol id="whistle" viewBox="0 0 34 24">
	<path fill="#ED1D25" fill-rule="evenodd" d="M12.2 1h20c.442 0 .8.352.8.786V8.07a.791.791 0 01-.672.777l-9.07 1.44c.094.579.142 1.153.142 1.712 0 6.066-5.024 11-11.2 11C6.024 23 1 18.066 1 12S6.024 1 12.2 1zm0 20.429c5.294 0 9.6-4.23 9.6-9.429 0-.704-.09-1.438-.267-2.176a.776.776 0 01.113-.618.804.804 0 01.536-.34L31.4 7.403v-4.83H12.2C6.906 2.571 2.6 6.8 2.6 12c0 5.2 4.306 9.429 9.6 9.429zm.533-14.143c2.647 0 4.8 2.115 4.8 4.714 0 2.6-2.153 4.714-4.8 4.714-2.646 0-4.8-2.115-4.8-4.714 0-2.6 2.154-4.714 4.8-4.714zm0 7.857c1.765 0 3.2-1.41 3.2-3.143 0-1.733-1.435-3.143-3.2-3.143-1.764 0-3.2 1.41-3.2 3.143 0 1.733 1.436 3.143 3.2 3.143z" clip-rule="evenodd"/>
	<path fill="#ED1D25" d="M32.328 8.848l-.04-.247.04.247zm-9.07 1.44l-.04-.246-.248.04.04.247.248-.04zm-1.725-.464l.243-.059-.243.059zm.113-.618l.207.14-.207-.14zm.536-.34l-.039-.246h-.002l.041.247zM31.4 7.403l.04.247.21-.034v-.213h-.25zm0-4.83h.25v-.25h-.25v.25zM32.2.75h-20v.5h20v-.5zm1.05 1.036c0-.576-.475-1.036-1.05-1.036v.5c.308 0 .55.244.55.536h.5zm0 6.285V1.786h-.5V8.07h.5zm-.883 1.024a1.04 1.04 0 00.883-1.024h-.5c0 .26-.193.487-.461.53l.078.494zm-9.07 1.44l9.07-1.44-.078-.494-9.07 1.44.078.495zM23.65 12c0-.574-.05-1.16-.146-1.752l-.493.081c.092.566.139 1.126.139 1.671h.5zM12.2 23.25c6.31 0 11.45-5.042 11.45-11.25h-.5c0 5.923-4.908 10.75-10.95 10.75v.5zM.75 12c0 6.208 5.14 11.25 11.45 11.25v-.5C6.158 22.75 1.25 17.923 1.25 12h-.5zM12.2.75C5.89.75.75 5.792.75 12h.5c0-5.923 4.908-10.75 10.95-10.75v-.5zM21.55 12c0 5.058-4.19 9.179-9.35 9.179v.5c5.428 0 9.85-4.337 9.85-9.679h-.5zm-.26-2.118c.173.72.26 1.435.26 2.118h.5c0-.725-.092-1.479-.274-2.235l-.486.117zm.15-.816c-.163.24-.218.534-.15.816l.486-.117a.526.526 0 01.078-.419l-.415-.28zm.701-.446a1.054 1.054 0 00-.702.446l.415.28a.554.554 0 01.37-.233l-.083-.493zm9.22-1.465L22.143 8.62l.079.493 9.217-1.464-.078-.494zm-.211-4.584v4.831h.5v-4.83h-.5zm-18.95.25h19.2v-.5H12.2v.5zM2.85 12c0-5.058 4.19-9.179 9.35-9.179v-.5c-5.428 0-9.85 4.337-9.85 9.679h.5zm9.35 9.179c-5.16 0-9.35-4.121-9.35-9.179h-.5c0 5.342 4.422 9.679 9.85 9.679v-.5zM17.783 12c0-2.741-2.27-4.964-5.05-4.964v.5c2.513 0 4.55 2.007 4.55 4.464h.5zm-5.05 4.964c2.78 0 5.05-2.223 5.05-4.964h-.5c0 2.457-2.037 4.464-4.55 4.464v.5zM7.683 12c0 2.741 2.27 4.964 5.05 4.964v-.5c-2.512 0-4.55-2.007-4.55-4.464h-.5zm5.05-4.964c-2.78 0-5.05 2.223-5.05 4.964h.5c0-2.457 2.038-4.464 4.55-4.464v-.5zM15.683 12c0 1.591-1.319 2.893-2.95 2.893v.5c1.899 0 3.45-1.517 3.45-3.393h-.5zm-2.95-2.893c1.631 0 2.95 1.302 2.95 2.893h.5c0-1.876-1.551-3.393-3.45-3.393v.5zM9.783 12c0-1.591 1.32-2.893 2.95-2.893v-.5c-1.898 0-3.45 1.517-3.45 3.393h.5zm2.95 2.893c-1.63 0-2.95-1.302-2.95-2.893h-.5c0 1.876 1.552 3.393 3.45 3.393v-.5z"/>
</symbol>
</svg>